<?xml version="1.0" encoding="UTF-8"?>
<svg id="Ebene_2" data-name="Ebene 2" xmlns="http://www.w3.org/2000/svg" viewBox="0 0 476.62 66.46">
  <defs>
    <style>
      .cls-1 {
        fill: #309c30;
      }
    </style>
  </defs>
  <g id="Ebene_1-2" data-name="Ebene 1">
    <path id="id-D6z1nYkh8" class="cls-1" d="M19.73,65.6H0v-1.71l6.69-2.56V13.58L.08,10.93v-1.71h11.86l33.2,43.48V13.41l-7.96-2.48v-1.71h19.48v1.71l-6.69,2.56v52.53h-2.63L11.6,19.47v41.77l8.13,2.65v1.71h0ZM95.71,66.45h0c-4.52,0-8.55-1.07-12.11-3.2-3.56-2.14-6.37-5.07-8.43-8.8s-3.09-7.99-3.09-12.77h0c0-4.78,1.03-9.05,3.09-12.81s4.87-6.7,8.43-8.84,7.59-3.2,12.11-3.2h0c4.57,0,8.65,1.07,12.24,3.2,3.59,2.14,6.41,5.08,8.47,8.84s3.09,8.03,3.09,12.81h0c0,4.78-1.03,9.04-3.09,12.77-2.06,3.73-4.88,6.66-8.47,8.8-3.59,2.14-7.67,3.2-12.24,3.2ZM97.24,62.7h0c4.91,0,8.82-1.71,11.73-5.12,2.91-3.42,4.36-8,4.36-13.75h0c0-4.67-.8-8.75-2.41-12.26-1.61-3.5-3.83-6.22-6.65-8.16s-6.07-2.9-9.74-2.9h0c-4.91,0-8.87,1.71-11.86,5.12-2.99,3.42-4.49,7.97-4.49,13.67h0c0,4.67.82,8.77,2.46,12.3s3.9,6.26,6.78,8.2,6.15,2.9,9.83,2.9h0ZM152.8,65.6h-17.62v-1.71l6.01-2.14V21.61l-6.01-2.14v-1.71h17.11c5.25,0,9.37,1.08,12.37,3.25,2.99,2.16,4.49,5.07,4.49,8.71h0c0,2.9-.89,5.35-2.67,7.35-1.78,1.99-4.19,3.53-7.24,4.61h0l13.47,20.33,5.25,1.88v1.71h-10.59l-14.15-22.21h-6.01v18.28l5.59,2.22v1.71h0ZM151.87,21.44h-4.66v18.28h5.08c3.16,0,5.67-.83,7.54-2.48,1.86-1.65,2.8-3.84,2.8-6.58h0c0-2.96-.93-5.24-2.8-6.83-1.86-1.59-4.52-2.39-7.96-2.39h0ZM205.99,65.6h-18.63v-1.71l6.01-2.14V21.61l-6.01-2.14v-1.71h19.14c5.53,0,10.23.93,14.1,2.78,3.87,1.85,6.82,4.41,8.85,7.69,2.03,3.27,3.05,7.05,3.05,11.32h0c0,5.3-1.07,9.89-3.22,13.79s-5.2,6.92-9.15,9.05c-3.95,2.14-8.67,3.2-14.15,3.2h0ZM205.99,21.44h-6.52v40.49h6.95c4.18,0,7.74-.85,10.67-2.56s5.18-4.1,6.73-7.17c1.55-3.07,2.33-6.63,2.33-10.68h0c0-6.32-1.74-11.25-5.21-14.78s-8.46-5.3-14.95-5.3h0ZM273.16,66.45h0c-4.74,0-8.96-1.01-12.66-3.03s-6.61-4.78-8.72-8.29c-2.12-3.5-3.18-7.53-3.18-12.09h0c0-3.76.66-7.22,1.99-10.38s3.18-5.92,5.55-8.29,5.1-4.2,8.17-5.51c3.08-1.31,6.39-1.96,9.95-1.96h0c3.78,0,6.8.33,9.06.98s4.4,1.49,6.44,2.52h0l.42,11.7h-1.44l-3.9-7.94c-2.09-1.42-3.92-2.43-5.51-3.03-1.58-.6-3.36-.9-5.34-.9h0c-3.95,0-7.41.87-10.38,2.61-2.96,1.74-5.28,4.09-6.95,7.05s-2.5,6.26-2.5,9.91h0c0,4.84.9,8.97,2.71,12.38,1.81,3.42,4.25,6.04,7.33,7.86s6.48,2.73,10.21,2.73h0c1.75,0,3.44-.13,5.08-.38,1.64-.26,3.36-.75,5.17-1.49h0v-12.47l-6.78-2.31v-1.62h17.79v1.62l-5.34,2.39v12.21c-2.09,1.77-4.74,3.16-7.96,4.19-3.22,1.02-6.3,1.54-9.23,1.54h.02ZM327.28,65.6h-17.62v-1.71l6.01-2.14V21.61l-6.01-2.14v-1.71h17.11c5.25,0,9.37,1.08,12.37,3.25,2.99,2.16,4.49,5.07,4.49,8.71h0c0,2.9-.89,5.35-2.67,7.35-1.78,1.99-4.19,3.53-7.24,4.61h0l13.47,20.33,5.25,1.88v1.71h-10.59l-14.15-22.21h-6.01v18.28l5.59,2.22v1.71h0ZM326.35,21.44h-4.66v18.28h5.08c3.16,0,5.67-.83,7.54-2.48,1.86-1.65,2.8-3.84,2.8-6.58h0c0-2.96-.93-5.24-2.8-6.83-1.86-1.59-4.52-2.39-7.96-2.39ZM387,66.45h0c-3.67,0-6.95-.63-9.83-1.88-2.88-1.25-5.15-3.26-6.82-6.02-1.67-2.76-2.5-6.36-2.5-10.8h0v-26.14l-6.01-2.14v-1.71h18.13v1.71l-6.01,2.14v25.37c0,5.81,1.27,9.85,3.81,12.13s6.01,3.42,10.42,3.42h0c2.48,0,4.76-.5,6.82-1.49,2.06-1,3.7-2.51,4.91-4.53,1.21-2.02,1.82-4.6,1.82-7.73h0v-27.33l-7.2-1.96v-1.71h17.19v1.71l-5.93,2.05v26.22c0,4.44-.82,8.04-2.46,10.8-1.64,2.76-3.87,4.77-6.69,6.02s-6.04,1.88-9.66,1.88h0ZM379.71,7.86h0c-1.07,0-1.99-.38-2.75-1.15-.76-.77-1.14-1.69-1.14-2.78h0c0-1.08.38-2.01,1.14-2.78s1.68-1.15,2.75-1.15h0c1.07,0,1.99.38,2.75,1.15.76.77,1.14,1.69,1.14,2.78h0c0,1.08-.38,2.01-1.14,2.78s-1.68,1.15-2.75,1.15ZM395.47,7.86h0c-1.07,0-1.99-.38-2.75-1.15-.76-.77-1.14-1.69-1.14-2.78h0c0-1.08.38-2.01,1.14-2.78s1.68-1.15,2.75-1.15h0c1.07,0,1.99.38,2.75,1.15.76.77,1.14,1.69,1.14,2.78h0c0,1.08-.38,2.01-1.14,2.78s-1.68,1.15-2.75,1.15ZM443.75,65.6h-17.02v-1.71l5.93-2.14V21.52l-5.93-2.05v-1.71h11.1l28.88,36.73V21.52l-6.78-2.05v-1.71h16.69v1.71l-5.84,2.05v44.41h-2.71l-31.42-39.46v35.02l7.11,2.39v1.71h-.01Z"/>
  </g>
</svg>