<?xml version="1.0" encoding="UTF-8"?>
<svg id="Ebene_1" data-name="Ebene 1" xmlns="http://www.w3.org/2000/svg" viewBox="0 0 256 256">
  <defs>
    <style>
      .cls-1 {
        fill: #319c37;
      }
    </style>
  </defs>
  <path class="cls-1" d="M110.16,165.42c2.48-17.55-7.43-31.35-27.96-28.17-11.18,1.91-19.25,8.14-31.07,2.48-.64,0-.64-.64,0-.64,13.66,6.3,25.48-3.75,36.66-4.39-3.11-1.91-6.87-3.75-10.55-6.3-6.23.64-11.82,0-18.05-4.39,0,0,.64,0,.64-.64,5.59,3.75,11.18,4.39,16.14,3.11-4.39-3.75-6.23-9.41-6.87-15.64.42-.42.85-.64,1.27-.64,1.27,18.19,16.14,22.58,31.07,26.97-1.84-5.03-3.75-10.05-5.59-15.08-8.07-3.75-13.66-13.16-13.66-21.94q0-.28,0,0c1.84,10.69,6.87,16.92,13.66,19.46-.64-9.41-.64-19.46,2.48-29.44,0-.64.64-.64.64,0-10.55,40.77,12.46,41.33,14.93,64.55,6.87-11.25,8.71-18.19,9.98-31.35,1.84-13.8-10.55-13.16-13.66-27.6-1.84-7.5,0-10.69,0-10.69,1.27,15.08,5.59,17.55,16.14,26.97,3.11-3.11,5.59-6.87,7.43-12.53-6.23-3.75-10.55-8.14-11.82-16.28-.64-.64,0-.64.64,0,1.84,6.87,5.59,11.89,11.82,14.44,1.27-4.39,1.84-9.41,1.27-15.64-.64-.64,0-1.27.64,0,1.27,8.14.64,21.3-8.07,32.56,0,4.39-.64,25.05-1.84,26.97,0,0,14.3-6.3,17.41-8.14,8.07-3.75,8.07-23.21,4.39-30.08,0-.64,0-1.27.64-.64,4.95,10.69,3.75,23.21-1.27,29.44,13.66-5.03,18.61-11.89,23-25.05-12.46-5.66-14.93-11.25-17.41-23.21,0-.64.64-.64.64,0,2.48,12.53,9.34,17.55,17.41,21.3.64-5.03.64-10.05-.64-15.64-.64-.64.64-.64.64,0,3.75,11.25-.64,26.33-3.11,28.81,11.18-3.75,16.77-10.69,18.61-20.67.64-1.27,1.27-.64,1.27,0-3.11,15.08-10.55,20.67-20.52,23.78-4.39,6.3-11.82,11.25-21.16,15.08,4.95,0,10.55,0,16.14.64,8.71-1.27,14.93-6.87,18.61-15.64,0-.64.64-.64.64,0-3.11,6.3-6.23,12.53-14.93,16.28,0,0,13.66,0,21.16-7.5,8.07-6.87,12.46-21.94,12.46-21.94,0-.64.64-.64.64,0-2.48,9.41-5.59,16.92-11.18,23.21,10.55-.64,14.93-1.91,21.73-10.69,0,0,.64,0,.64.64-6.23,10.05-13.66,11.25-24.84,11.89-16.77,12.53-34.82,3.11-46.64,7.5-5.59,2.48-11.82,8.78-11.82,8.78,9.34-3.11,16.14-.64,21.73,2.48.42.42.42.64,0,.64-5.59-2.48-10.55-6.3-22.37-1.27-22.37,20.67,1.27,45.72,16.77,51.38h-34.82c6.23-8.78-1.84-23.78,0-37.58h0l-.07.07Z"/>
  <path class="cls-1" d="M49.86,139.17c-4.95,3.75-11.82,1.91-14.93-3.75,4.95-3.75,12.46-1.91,14.93,3.75Z"/>
  <path class="cls-1" d="M54.25,137.89c-6.23,0-10.55-5.66-9.34-11.89,6.23,0,11.18,6.3,9.34,11.89Z"/>
  <path class="cls-1" d="M61.04,140.37c-5.59-3.11-6.87-10.69-3.11-15.08,5.59,2.48,6.87,10.05,3.11,15.08Z"/>
  <path class="cls-1" d="M55.45,143.56c-2.48,5.66-9.34,7.5-14.3,4.39,2.48-6.3,9.34-8.14,14.3-4.39h0Z"/>
  <path class="cls-1" d="M64.79,143.56c1.27,5.66-3.75,11.25-9.98,11.25-1.27-6.3,3.75-11.89,9.98-11.25Z"/>
  <path class="cls-1" d="M70.38,141.64c4.95,3.75,4.39,11.25-.64,15.08-4.39-3.75-4.39-11.25.64-15.08Z"/>
  <path class="cls-1" d="M79.09,94.65c-5.59-2.48-8.07-9.41-4.95-14.44,5.59,1.91,8.07,8.78,4.95,14.44Z"/>
  <path class="cls-1" d="M82.2,97.76c-3.11-5.03-.64-12.53,4.95-14.44,3.75,5.03,1.27,12.53-4.95,14.44Z"/>
  <path class="cls-1" d="M84.04,104.7c-.64-6.3,4.95-11.25,11.18-10.69.64,6.3-4.95,11.25-11.18,10.69Z"/>
  <path class="cls-1" d="M78.45,101.51c-5.59,1.27-11.82-3.75-11.18-10.05,5.59-1.27,11.82,3.75,11.18,10.05Z"/>
  <path class="cls-1" d="M82.77,108.45c-4.39,4.39-11.82,3.11-14.93-1.91,4.39-4.39,11.82-3.75,14.93,1.91Z"/>
  <path class="cls-1" d="M87.79,117.23c-3.11,5.03-10.55,5.66-14.93,1.27,3.75-5.03,10.55-5.66,14.93-1.27Z"/>
  <path class="cls-1" d="M108.25,81.49c-5.59-2.48-8.07-9.41-4.95-14.44,5.59,1.91,8.07,8.78,4.95,14.44Z"/>
  <path class="cls-1" d="M111.36,84.6c-3.11-5.03-.64-12.53,4.95-14.44,3.75,5.66,1.27,12.53-4.95,14.44Z"/>
  <path class="cls-1" d="M112.64,94.65c-2.48-5.66,1.27-12.53,7.43-13.8,2.48,6.3-1.27,12.53-7.43,13.8Z"/>
  <path class="cls-1" d="M108.25,88.35c-6.23,1.27-11.82-3.75-11.82-10.05,6.23-1.27,11.82,3.75,11.82,10.05Z"/>
  <path class="cls-1" d="M98.34,102.15c-1.27-5.66,3.11-11.89,9.34-11.89,1.27,5.66-3.11,11.89-9.34,11.89Z"/>
  <path class="cls-1" d="M152.41,78.3c-6.23-1.91-8.71-9.41-4.95-14.44,5.59,1.91,8.07,8.78,4.95,14.44Z"/>
  <path class="cls-1" d="M155.53,81.49c-3.11-5.03-.64-12.53,4.95-14.44,3.11,5.66.64,12.53-4.95,14.44Z"/>
  <path class="cls-1" d="M156.73,88.35c-1.27-6.3,4.39-11.89,10.55-11.25.64,6.3-4.95,11.25-10.55,11.25Z"/>
  <path class="cls-1" d="M151.78,85.24c-6.23,1.27-11.82-3.75-11.82-10.05,6.23-.64,11.82,3.75,11.82,10.05Z"/>
  <path class="cls-1" d="M153.62,90.26c-4.39,4.39-11.82,3.11-14.93-1.91,4.39-4.39,11.82-3.11,14.93,1.91Z"/>
  <path class="cls-1" d="M185.32,92.1c-3.75-5.03-1.84-11.89,3.75-14.44,3.75,5.03,1.84,11.89-3.75,14.44Z"/>
  <path class="cls-1" d="M187.8,94.65c0-6.3,5.59-10.69,11.82-9.41,0,6.3-5.59,10.69-11.82,9.41Z"/>
  <path class="cls-1" d="M187.8,99.6c3.11-5.66,10.55-6.87,14.93-2.48-2.48,5.03-9.98,6.3-14.93,2.48Z"/>
  <path class="cls-1" d="M172.94,94.65c-1.27-6.3,3.75-11.89,9.98-11.89,1.27,6.3-3.75,11.89-9.98,11.89Z"/>
  <path class="cls-1" d="M173.5,104.06c5.59.64,11.18-4.39,11.18-10.69-6.23-.64-11.82,4.39-11.18,10.69Z"/>
  <path class="cls-1" d="M211.44,120.34c-1.84-6.3,1.84-12.53,8.07-13.16,1.84,6.3-1.84,12.53-8.07,13.16Z"/>
  <path class="cls-1" d="M211.44,123.46c3.11-5.66,10.55-6.3,14.93-1.91-3.11,5.03-10.55,6.3-14.93,1.91Z"/>
  <path class="cls-1" d="M207.05,127.84c5.59-3.11,12.46-.64,14.93,5.03-5.59,3.11-12.46,1.27-14.93-5.03Z"/>
  <path class="cls-1" d="M203.37,127.84c-3.11-4.39-1.84-11.25,3.11-13.8,3.75,5.03,1.84,11.25-3.11,13.8Z"/>
  <path class="cls-1" d="M196.51,117.23c-5.59-3.11-7.43-10.05-3.75-15.08,5.59,2.48,7.43,10.05,3.75,15.08Z"/>
  <path class="cls-1" d="M65.36,125.37c-5.59-2.48-6.87-10.05-3.11-15.08,5.59,3.11,6.87,10.69,3.11,15.08Z"/>
  <path class="cls-1" d="M68.47,108.45c-5.59,3.11-12.46.64-14.3-5.66,4.95-3.11,12.46,0,14.3,5.66Z"/>
  <path class="cls-1" d="M59.2,110.93c-2.48,5.66-9.34,7.5-14.3,4.39,2.48-6.3,9.34-8.14,14.3-4.39h0Z"/>
  <path class="cls-1" d="M58.56,122.82c-4.95,3.75-12.46,1.91-14.93-3.75,4.95-3.75,11.82-1.91,14.93,3.75Z"/>
  <path class="cls-1" d="M66.63,101.51c-5.59-.64-10.55-6.3-8.71-12.53,6.23,0,10.55,6.3,8.71,12.53Z"/>
  <path class="cls-1" d="M54.81,106.54c-4.39,3.75-11.82,3.11-14.93-2.48,4.39-3.75,11.82-3.11,14.93,2.48Z"/>
  <path class="cls-1" d="M58.56,100.88c-6.23,1.27-11.82-3.75-11.82-10.05,6.23-1.27,11.82,3.75,11.82,10.05Z"/>
  <path class="cls-1" d="M45.47,124.09c-4.95,3.75-12.46,1.91-14.93-3.75,4.95-3.75,12.46-1.91,14.93,3.75Z"/>
  <path class="cls-1" d="M94.59,88.35c-6.23-1.91-8.71-8.78-4.95-14.44,5.59,2.48,8.07,9.41,4.95,14.44Z"/>
  <path class="cls-1" d="M85.88,82.12c-6.23,1.27-11.82-3.75-11.82-10.05,6.23-1.27,11.82,3.75,11.82,10.05Z"/>
  <path class="cls-1" d="M101.45,77.1c-6.23,1.27-11.82-3.75-11.82-10.05,6.23-1.27,11.82,3.75,11.82,10.05Z"/>
  <path class="cls-1" d="M120.7,80.85c-3.11-5.66-.64-12.53,4.95-14.44,3.75,5.03,1.27,12.53-4.95,14.44Z"/>
  <path class="cls-1" d="M110.73,72.07c-4.39-4.39-2.48-11.89,2.48-15.08,4.39,5.03,3.11,11.89-2.48,15.08Z"/>
  <path class="cls-1" d="M135.64,80.21c-5.59-1.91-8.07-8.78-4.95-14.44,5.59,1.91,8.07,9.41,4.95,14.44Z"/>
  <path class="cls-1" d="M135,90.26c-6.23,1.27-11.82-3.11-11.82-9.41,6.23-1.27,11.82,3.11,11.82,9.41Z"/>
  <path class="cls-1" d="M155.53,96.49c-3.11,5.03-9.98,6.3-14.93,1.91,3.11-5.03,10.55-6.3,14.93-1.91Z"/>
  <path class="cls-1" d="M149.3,110.93c-6.23,1.27-11.82-3.75-11.82-10.05,6.23-1.27,11.82,3.75,11.82,10.05Z"/>
  <path class="cls-1" d="M152.41,120.98c-.64-6.3,4.39-11.25,10.55-10.69.64,6.3-4.39,11.25-10.55,10.69Z"/>
  <path class="cls-1" d="M153.05,112.84c-3.75-5.03-1.27-12.53,4.39-15.08,3.75,5.03,1.27,12.53-4.39,15.08Z"/>
  <path class="cls-1" d="M162.32,99.04c-3.11-5.03-1.27-12.53,4.39-15.08,3.75,5.66,1.27,12.53-4.39,15.08Z"/>
  <path class="cls-1" d="M171.03,88.35c-4.39-4.39-3.75-11.89,1.27-15.64,4.39,4.39,4.39,11.89-1.27,15.64Z"/>
  <path class="cls-1" d="M190.91,134.78c6.23-1.91,11.82,2.48,12.46,8.78-5.59,1.91-11.82-2.48-12.46-8.78Z"/>
  <path class="cls-1" d="M181.64,120.98c-1.84-6.3,1.84-12.53,8.07-13.16,1.84,6.3-1.84,12.53-8.07,13.16Z"/>
  <path class="cls-1" d="M201.53,107.81c-1.84-6.3,2.48-12.53,8.07-13.16,1.84,6.3-1.84,12.53-8.07,13.16Z"/>
  <path class="cls-1" d="M200.26,112.84c1.84-5.66,8.71-8.78,13.66-5.66-1.27,5.66-8.07,8.78-13.66,5.66Z"/>
  <path class="cls-1" d="M200.89,132.87c5.59-3.11,11.82,0,13.66,6.3-5.59,2.48-12.46-.64-13.66-6.3Z"/>
  <path class="cls-1" d="M97.7,113.48c-1.27-5.66,3.11-11.89,9.34-11.89,1.84,6.3-3.11,11.89-9.34,11.89Z"/>
  <path class="cls-1" d="M149.93,119.07c-5.59,2.48-12.46-1.27-13.66-6.87,5.59-3.11,12.46.64,13.66,6.87Z"/>
  <path class="cls-1" d="M138.75,75.19c-3.11-5.03-.64-11.89,4.95-14.44,3.11,5.66.64,12.53-4.95,14.44Z"/>
  <path class="cls-1" d="M136.28,67.68c-6.23-1.91-8.71-9.41-5.59-14.44,6.23,1.91,8.71,9.41,5.59,14.44Z"/>
  <path class="cls-1" d="M119.5,69.52c-3.75-5.03-1.84-12.53,3.75-15.08,3.75,5.03,1.84,12.53-3.75,15.08Z"/>
  <path class="cls-1" d="M72.86,137.89c-4.95.64-9.34-3.75-8.71-8.78,4.95-.64,9.34,3.75,8.71,8.78Z"/>
  <path class="cls-1" d="M94.59,122.18c-1.84,6.3-8.71,8.78-14.3,6.3,1.84-6.3,8.71-8.78,14.3-6.3h0Z"/>
  <path class="cls-1" d="M79.09,139.17c3.75,3.11,3.75,10.05-.64,13.16-4.39-3.75-3.75-10.05.64-13.16Z"/>
  <path class="cls-1" d="M68.47,90.26c-5.59-3.11-6.87-10.69-3.11-15.08,5.59,2.48,7.43,10.05,3.11,15.08Z"/>
  <path class="cls-1" d="M176.62,82.12c-1.84-5.66,2.48-11.89,8.71-12.53,1.84,6.3-2.48,12.53-8.71,12.53Z"/>
  <path class="cls-1" d="M164.8,75.82c-3.75-5.03-1.27-12.53,4.39-15.08,3.75,5.03,1.27,12.53-4.39,15.08Z"/>
  <path class="cls-1" d="M154.25,68.96c-3.75-5.03-1.84-11.89,4.39-14.44,3.11,5.03,1.27,11.89-4.39,14.44Z"/>
  <path class="cls-1" d="M198.98,93.38c1.84-6.3,8.71-8.78,14.3-5.66-1.84,6.3-8.71,8.78-14.3,5.66Z"/>
  <path class="cls-1" d="M192.82,85.24c-2.48-5.66,1.84-12.53,8.07-13.16,1.84,6.3-2.48,12.53-8.07,13.16Z"/>
  <path class="cls-1" d="M171.03,132.87c-3.11-4.39-1.27-10.69,3.75-12.53,3.11,4.39,1.27,10.05-3.75,12.53Z"/>
  <path class="cls-1" d="M180.37,126.57c.64-5.03,6.23-8.14,11.18-5.66-1.27,5.03-6.87,8.14-11.18,5.66Z"/>
  <path class="cls-1" d="M98.98,119.07c.64-5.03,6.23-8.14,11.18-6.3-1.27,5.66-6.87,8.14-11.18,6.3Z"/>
  <path class="cls-1" d="M87.16,112.2c-.64-5.03,3.11-9.41,8.07-9.41.64,5.03-3.11,9.41-8.07,9.41Z"/>
  <path class="cls-1" d="M116.95,100.88c-1.27-5.03,2.48-9.41,7.43-9.41,1.27,5.03-2.48,9.41-7.43,9.41Z"/>
  <path class="cls-1" d="M148.66,125.37c-4.39,3.11-9.98,1.27-11.82-3.11,3.75-3.11,9.34-1.91,11.82,3.11Z"/>
  <path class="cls-1" d="M166.71,135.35c-3.11-2.48-3.11-7.5,0-10.05,3.11,2.48,3.11,7.5,0,10.05Z"/>
  <path class="cls-1" d="M171.66,112.84c4.95.64,9.34-3.11,8.71-8.14-4.95-.64-9.34,3.11-8.71,8.14Z"/>
  <path class="cls-1" d="M175.41,133.51c1.27-4.39,6.23-5.66,9.34-3.75-1.27,3.75-5.59,5.66-9.34,3.75Z"/>
  <path class="cls-1" d="M182.21,138.53c4.39-2.48,9.98.64,11.18,5.66-4.95,1.91-10.55-.64-11.18-5.66Z"/>
  <path class="cls-1" d="M151.78,153.53c4.39-2.48,9.98.64,11.18,5.66-4.95,1.91-10.55-.64-11.18-5.66Z"/>
  <path class="cls-1" d="M146.82,149.15c3.11-3.75,9.34-4.39,13.02-.64-3.11,4.39-9.34,5.03-13.02.64Z"/>
  <path class="cls-1" d="M145.55,151.69c4.39,2.48,4.95,8.78,1.27,12.53-4.39-2.48-4.95-8.78-1.27-12.53Z"/>
  <path class="cls-1" d="M138.75,149.78c3.75,3.11,3.75,10.05-.64,12.53-3.75-3.11-3.75-9.41.64-12.53Z"/>
  <path class="cls-1" d="M139.96,147.31c1.27-5.03,7.43-7.5,11.82-5.03-1.27,5.03-6.87,7.5-11.82,5.03Z"/>
</svg>